<svg data-v-423bf9ae="" xmlns="http://www.w3.org/2000/svg" viewBox="0 0 186.41001352583785 163" class="iconAbove"><!----><!----><!----><g data-v-423bf9ae="" id="8f636767-cbe8-4d71-9c7b-cccd99640f28" fill="white" transform="matrix(5.774783784855467,0,0,5.774783784855467,-0.7507240545454863,83.13474106547562)"><path d="M11.07 4.23C11.07 3.99 10.93 3.91 10.78 3.91C10.65 3.91 10.26 3.95 9.46 3.95C8.65 3.95 8.25 3.91 8.12 3.91C7.81 3.91 7.71 4.10 7.71 4.24C7.71 4.48 7.92 4.52 8.02 4.54C8.64 4.61 8.90 4.62 8.93 5.22C9.02 6.59 9.06 7.97 9.06 9.39C9.06 9.90 9.04 10.39 9.03 10.89C9.03 10.96 9.02 11.03 8.93 11.03C8.83 11.03 8.72 10.89 6.19 8.15L4.91 6.72L2.72 4.17C2.56 3.99 2.45 3.91 2.16 3.91L0.43 3.91C0.25 3.91 0.13 3.98 0.13 4.27C0.13 4.54 0.24 4.58 0.38 4.58C1.15 4.63 1.53 5.08 1.62 5.18C2.07 5.59 2.09 5.67 2.09 5.80L2.09 5.81L2.09 5.85C1.75 12.31 1.76 12.26 1.69 12.43C1.47 12.89 0.81 12.78 0.50 12.88C0.32 12.94 0.29 13.20 0.29 13.24C0.29 13.41 0.42 13.52 0.59 13.52C0.66 13.52 1.39 13.44 2.31 13.44C3.22 13.44 3.96 13.52 4.02 13.52C4.17 13.52 4.26 13.41 4.26 13.26C4.26 12.96 4.13 12.92 4.07 12.89C3.98 12.87 3.40 12.80 3.22 12.80C2.63 12.75 2.59 12.61 2.59 11.89L2.59 11.48C2.59 9.77 2.66 8.15 2.77 6.51C2.79 6.50 2.80 6.45 2.83 6.45C2.88 6.45 3.11 6.72 5.94 9.87L8.83 13.17C9.23 13.62 9.38 13.76 9.52 13.76C9.80 13.76 9.80 13.30 9.80 13.10C9.80 12.71 9.74 11.54 9.74 9.17C9.74 7.91 9.77 6.64 9.80 5.38C9.80 4.02 11.07 4.96 11.07 4.23ZM11.59 8.61C11.59 8.93 11.89 9.11 12.15 9.11C12.33 9.11 12.42 9.02 12.46 8.96C12.49 8.90 12.87 8.02 13.66 8.02C14.03 8.02 14.31 8.22 14.48 8.40C14.76 8.72 14.81 9.07 14.81 9.52L14.81 10.02C14.81 10.12 14.80 10.19 14.70 10.22C14.67 10.23 12.99 10.29 12.24 10.89C11.90 11.16 11.65 11.61 11.65 12.14L11.65 12.15C11.65 13.01 12.28 13.72 13.24 13.72C13.76 13.72 14.22 13.54 14.55 13.33C14.90 13.09 14.85 13.02 14.92 13.02C14.94 13.02 14.94 13.03 14.95 13.03C14.98 13.05 15.32 13.61 15.95 13.61C16.67 13.61 17.02 12.82 17.02 12.50C17.02 12.38 16.95 12.32 16.90 12.32C16.69 12.32 16.72 12.78 16.28 12.78C16.14 12.78 15.81 12.71 15.81 12.17L15.81 9.41C15.81 9.24 15.79 9.07 15.78 8.90C15.64 7.53 14.28 7.36 13.75 7.36C12.59 7.36 11.59 8.11 11.59 8.61ZM13.58 12.95C13.40 12.95 13.15 12.92 12.98 12.77C12.75 12.57 12.68 12.22 12.68 12.00C12.68 11.65 12.84 11.40 13.02 11.24C13.48 10.81 14.43 10.74 14.69 10.74C14.81 10.74 14.83 10.81 14.83 11.14L14.83 11.72L14.83 12.05C14.83 12.18 14.81 12.28 14.74 12.38C14.67 12.47 14.27 12.95 13.58 12.95ZM20.44 8.08C20.96 8.08 21.52 8.22 21.94 8.61C22.08 8.75 22.08 8.85 22.08 8.95L22.08 12.08C22.08 12.19 22.06 12.29 22.04 12.40C21.92 12.77 21.25 13.01 20.72 13.01C19.75 13.01 18.28 12.15 18.28 10.42C18.28 9.00 19.01 8.08 20.44 8.08ZM20.47 7.52L20.45 7.52C18.24 7.52 17.35 9.09 17.35 10.54C17.35 12.31 18.56 13.73 20.40 13.73C21.49 13.73 22.02 13.19 22.06 13.19C22.08 13.19 22.09 13.20 22.09 13.23L22.09 13.69C22.09 13.82 22.16 13.83 22.20 13.83C22.34 13.83 22.53 13.57 23.17 13.22C23.73 12.89 24.00 12.89 24.00 12.68C24.00 12.49 23.74 12.49 23.73 12.49C23.23 12.46 23.09 12.50 23.07 12.29C23.06 12.17 23.03 9.56 23.03 8.18C23.03 5.46 23.07 4.10 23.07 3.64C23.07 3.53 23.02 3.44 22.90 3.44C22.85 3.44 22.58 3.57 21.10 4.30C21.06 4.33 20.97 4.37 20.97 4.45C20.97 4.59 21.14 4.65 21.24 4.68C21.98 4.97 22.08 4.97 22.08 5.25L22.08 7.60C22.08 7.67 22.05 7.73 21.98 7.73C21.91 7.73 21.38 7.52 20.47 7.52ZM25.48 4.79C25.48 5.17 25.77 5.45 26.14 5.45C26.50 5.45 26.82 5.15 26.82 4.77C26.82 4.42 26.52 4.13 26.15 4.13C25.79 4.13 25.48 4.42 25.48 4.79ZM25.34 11.75L25.34 12.40C25.34 12.66 25.31 12.85 24.96 12.91C24.33 12.99 24.28 12.96 24.28 13.29C24.28 13.43 24.35 13.52 24.49 13.52C24.53 13.52 25.07 13.44 25.77 13.44C26.46 13.44 27.02 13.52 27.06 13.52C27.22 13.52 27.23 13.33 27.23 13.22C27.23 12.98 27.06 12.99 26.60 12.92C26.29 12.88 26.28 12.84 26.28 11.13L26.28 10.67C26.28 8.96 26.36 7.60 26.36 7.49C26.36 7.32 26.25 7.27 26.17 7.27L26.15 7.27C26.08 7.27 26.07 7.29 24.61 7.99C24.46 8.06 24.23 8.12 24.23 8.29C24.23 8.40 24.33 8.44 24.40 8.47C25.30 8.83 25.35 8.82 25.35 9.04C25.35 9.31 25.34 10.12 25.34 11.75ZM29.46 8.16C29.43 8.16 29.41 8.13 29.41 8.09L29.41 7.53C29.41 7.41 29.40 7.25 29.25 7.25C29.20 7.25 29.16 7.28 29.12 7.29C27.66 8.01 27.65 7.98 27.65 8.05C27.66 8.11 27.69 8.13 27.71 8.15C28.36 8.62 28.48 8.61 28.48 8.89L28.48 12.60C28.48 12.81 28.42 12.89 28.22 12.94C27.85 13.03 27.59 12.95 27.59 13.29C27.59 13.43 27.68 13.52 27.82 13.52C27.86 13.52 28.46 13.44 29.25 13.44C30.00 13.44 30.62 13.52 30.66 13.52C30.84 13.52 30.86 13.36 30.86 13.24C30.86 12.92 30.67 12.98 29.83 12.91C29.50 12.88 29.48 12.64 29.48 12.49L29.48 12.43L29.48 9.07C29.48 8.97 29.48 8.90 29.54 8.82C29.62 8.69 30.18 8.25 30.63 8.25C31.09 8.25 31.11 8.60 31.46 8.60C31.70 8.60 31.88 8.41 32.03 8.32C32.14 8.22 32.40 8.06 32.41 7.83L32.41 7.81C32.41 7.42 31.77 7.20 31.32 7.20C31.16 7.20 31.04 7.21 30.91 7.25C30.53 7.39 29.51 8.16 29.46 8.16Z"></path></g><!----><g data-v-423bf9ae="" id="698e44e4-7d5c-4379-bb73-2567d6603d61" transform="matrix(1.022403116382546,0,0,1.022403116382546,28.557238882704723,-19.44805788367337)" stroke="none" fill="white"><path d="M26.021 27.707a2.05 2.05 0 0 0 2.486 1.35 2 2 0 0 0 1.35-2.485l-1.312-4.434a2 2 0 1 0-3.836 1.135l1.313 4.434zM13.606 34.629l3.642 1.879a2.028 2.028 0 0 0 2.694-.86 2 2 0 0 0-.86-2.695l-3.642-1.879a2 2 0 0 0-1.834 3.555zM39.01 30.377a2.031 2.031 0 0 0 2.742-.695l2.063-3.462a2 2 0 0 0-3.436-2.046l-2.063 3.461a2 2 0 0 0 .694 2.742zM20.726 31.483a2.043 2.043 0 0 0 2.818.243 1.999 1.999 0 0 0 .244-2.817l-2.576-3.063a2 2 0 0 0-3.061 2.575zM33.859 28.9a2.022 2.022 0 0 0 2.246-1.72l.521-3.917a2 2 0 1 0-3.965-.527l-.52 3.917a2 2 0 0 0 1.718 2.246zM43.124 33.565a2.06 2.06 0 0 0 2.802.381l3.284-2.498a2 2 0 1 0-2.42-3.184l-3.285 2.498a2 2 0 0 0-.381 2.803zM11.843 42.34s4.272.333 4.324.333a2 2 0 0 0 .155-3.994l-4.165-.328a2 2 0 0 0-.314 3.989zM19.771 43.096a2 2 0 1 0 3.996-.192 8.126 8.126 0 0 1 6.088-8.175 8.603 8.603 0 0 1 9.6 3.657 2 2 0 1 0 3.401-2.104 12.616 12.616 0 0 0-14.071-5.406 12.1 12.1 0 0 0-9.014 12.22zM81.887 23.997c.77.043 1.533.245 1.673 2.15a1.998 1.998 0 0 0 1.237 1.703 2.043 2.043 0 0 0 2.077-.347c.022-.02 2.209-1.91 3.989-.676a2 2 0 0 0 2.274-3.291 6.596 6.596 0 0 0-6.337-.567 5.33 5.33 0 0 0-4.687-2.966 2 2 0 0 0-.226 3.994zM106.887 36.997c.77.043 1.533.245 1.673 2.15a1.998 1.998 0 0 0 1.237 1.703 2.038 2.038 0 0 0 2.077-.347c.022-.02 2.207-1.911 3.989-.676a2 2 0 0 0 2.274-3.291 6.596 6.596 0 0 0-6.337-.566 5.33 5.33 0 0 0-4.687-2.967 2 2 0 0 0-.226 3.994zM63.037 62.647a1.997 1.997 0 0 0-2.747.673l-12 19.802a2 2 0 0 0 .673 2.746 2.048 2.048 0 0 0 2.747-.673l12-19.802a2 2 0 0 0-.673-2.746z"></path><path d="M96.475 72.718L72.731 36.694a6.022 6.022 0 0 0-10.063.035L35.339 78.85l2.4 3.651 28.284-43.593a2.038 2.038 0 0 1 3.368-.012l24.706 37.481zM27.237 73.803a4.01 4.01 0 0 0-6.706.015L.323 104.911a2 2 0 0 0 .587 2.766 2.048 2.048 0 0 0 2.767-.587L23.894 76l20.435 31.099a2 2 0 1 0 3.342-2.197z"></path><path d="M23.067 89.951a2 2 0 0 0-2.758.624l-5 7.922a2 2 0 0 0 .624 2.76 2.032 2.032 0 0 0 2.758-.625l5-7.922a2 2 0 0 0-.624-2.759zM127.671 104.902l-20.434-31.1a4.01 4.01 0 0 0-6.706.016L80.323 104.91a2 2 0 0 0 .587 2.767 2.032 2.032 0 0 0 2.767-.587L103.894 76l20.435 31.099a2 2 0 1 0 3.342-2.197z"></path><path d="M103.067 89.951a2 2 0 0 0-2.758.624l-5 7.922a2 2 0 0 0 .623 2.759 2.04 2.04 0 0 0 2.76-.624l5-7.922a2 2 0 0 0-.625-2.759z"></path></g><!----></svg>